# xmcd
#
# Track frame offsets:
#	150
#	10192
#	25457
#	37965
#	49847
#	64002
#	76515
#	91500
#	101575
#	115045
#	130327
#	140657
#	151022
#	164775
#	176897
#	193055
#	203597
#	215592
#	235922
#	248505
#	260585
#	277445
#	290267
#	301317
#	314495
#
# Disc length: 4305 seconds
#
# Revision: 0
# Processed by: cddbd v1.5.1PL0 Copyright (c) Steve Scherf et al.
# Submitted via: audiograbber 1.83.01
#
DISCID=6110cf19
DTITLE=Various Artist - Shades of Country Vol 4
DYEAR=1900
DGENRE=Country
TTITLE0=Hank Locklin - Please Help Me Im Falling
TTITLE1=Tony Orlando - Tie A Yellow Ribbon Round the Old Oak Tree
TTITLE2=BJ Thomas - I cant help it (if im still in love with you)
TTITLE3=Frankie Avalon - Why
TTITLE4=Sonny Til and The Orioles - Crying in the Chapel
TTITLE5=Bobby Bare - 500 Miles Away From Home
TTITLE6=Frankie Laine - Sixteen Ton
TTITLE7=Marilyn Monroe - River Of No Return
TTITLE8=BT Jones - Take Me Home Country Road
TTITLE9=Jim Reeves - The Blizzard
TTITLE10=Faron Young - Hello Walls
TTITLE11=Pat Boone - Love Letter in the Sand
TTITLE12=Willie Nelson - You'll Always Have Someone
TTITLE13=Tammy Wynette - Stand By Your Man
TTITLE14=Kenny Rogers - Lucille
TTITLE15=Johnny Cash - You Win Again
TTITLE16=Kenny Rogers and The First Edition - Roby, dont take your love to town
TTITLE17=Gram Parsons and Emmy Lou Harris - Love Hurt
TTITLE18=Freddy Fender - Silver Wings
TTITLE19=Brenda Lee - I'm Sorry
TTITLE20=Wood Bros - Say You Love Me
TTITLE21=Patti Page - Allegheny Moon
TTITLE22=Faron Young - Wine Me Up
TTITLE23=Ray Stevens - Misty
TTITLE24=Instrumental - Instrumental
EXTD=
EXTT0=
EXTT1=
EXTT2=
EXTT3=
EXTT4=
EXTT5=
EXTT6=
EXTT7=
EXTT8=
EXTT9=
EXTT10=
EXTT11=
EXTT12=
EXTT13=
EXTT14=
EXTT15=
EXTT16=
EXTT17=
EXTT18=
EXTT19=
EXTT20=
EXTT21=
EXTT22=
EXTT23=
EXTT24=
PLAYORDER=
